HIERARCHY
ROOT Hips
{
	OFFSET -3.958830 18.904000 13.208200
	CHANNELS 6 Xposition Yposition Zposition Zrotation Yrotation Xrotation 
	JOINT LHipJoint
	{
		OFFSET 0.000000 0.000000 0.000000
		CHANNELS 3 Zrotation Yrotation Xrotation
		JOINT LeftUpLeg
		{
			OFFSET 1.800000 -1.400000 0.085000
			CHANNELS 3 Zrotation Yrotation Xrotation
			JOINT LeftLeg
			{
				OFFSET 2.215000 -6.000000 0.000000
				CHANNELS 3 Zrotation Yrotation Xrotation
				JOINT LeftFoot
				{
					OFFSET 2.500000 -6.900000 0.000000
					CHANNELS 3 Zrotation Yrotation Xrotation
					JOINT LeftToeBase
					{
						OFFSET 0.200000 -0.500000 1.950000
						CHANNELS 3 Zrotation Yrotation Xrotation
						End Site
						{
							OFFSET 0.000000 0.000000 0.000000
						}
					}
				}
			}
		}
	}
	JOINT RHipJoint
	{
		OFFSET 0.000000 0.000000 0.000000
		CHANNELS 3 Zrotation Yrotation Xrotation
		JOINT RightUpLeg
		{
			OFFSET -1.800000 -1.400000 0.085000
			CHANNELS 3 Zrotation Yrotation Xrotation
			JOINT RightLeg
			{
				OFFSET -2.215000 -6.000000 0.000000
				CHANNELS 3 Zrotation Yrotation Xrotation
				JOINT RightFoot
				{
					OFFSET -2.500000 -6.900000 0.000000
					CHANNELS 3 Zrotation Yrotation Xrotation
					JOINT RightToeBase
					{
						OFFSET -0.200000 -0.500000 1.950000
						CHANNELS 3 Zrotation Yrotation Xrotation
						End Site
						{
							OFFSET 0.000000 0.000000 0.000000
						}
					}
				}
			}
		}
	}
	JOINT LowerBack
	{
		OFFSET 0.000000 0.000000 0.000000
		CHANNELS 3 Zrotation Yrotation Xrotation
		JOINT Spine
		{
			OFFSET -0.087000 1.940000 -0.288900
			CHANNELS 3 Zrotation Yrotation Xrotation
			JOINT Spine1
			{
				OFFSET 0.000000 1.950000 0.060000
				CHANNELS 3 Zrotation Yrotation Xrotation
				JOINT Neck
				{
					OFFSET 0.000000 0.000000 0.000000
					CHANNELS 3 Zrotation Yrotation Xrotation
					JOINT Neck1
					{
						OFFSET 0.000000 1.600000 0.340000
						CHANNELS 3 Zrotation Yrotation Xrotation
						JOINT Head
						{
							OFFSET 0.000000 1.667000 -0.240000
							CHANNELS 3 Zrotation Yrotation Xrotation
							End Site
							{
								OFFSET 0.000000 0.000000 0.000000
							}
						}
					}
				}
				JOINT LeftShoulder
				{
					OFFSET 0.000000 0.000000 0.000000
					CHANNELS 3 Zrotation Yrotation Xrotation
					JOINT LeftArm
					{
						OFFSET 2.700000 1.550000 -0.730000
						CHANNELS 3 Zrotation Yrotation Xrotation
						JOINT LeftForeArm
						{
							OFFSET 5.450000 0.000000 0.000000
							CHANNELS 3 Zrotation Yrotation Xrotation
							JOINT LeftHand
							{
								OFFSET 3.450000 0.000000 0.000000
								CHANNELS 3 Zrotation Yrotation Xrotation
								JOINT LeftHandIndex1
								{
									OFFSET 0.750000 0.000000 0.000000
									CHANNELS 3 Zrotation Yrotation Xrotation
									End Site
									{
										OFFSET 0.000000 0.000000 0.000000
									}
								}
							}
						}
					}
				}
				JOINT RightShoulder
				{
					OFFSET 0.000000 0.000000 0.000000
					CHANNELS 3 Zrotation Yrotation Xrotation
					JOINT RightArm
					{
						OFFSET -2.700000 1.550000 -0.730000
						CHANNELS 3 Zrotation Yrotation Xrotation
						JOINT RightForeArm
						{
							OFFSET -5.450000 0.000000 0.000000
							CHANNELS 3 Zrotation Yrotation Xrotation
							JOINT RightHand
							{
								OFFSET -3.450000 0.000000 0.000000
								CHANNELS 3 Zrotation Yrotation Xrotation
								JOINT RightHandIndex1
								{
									OFFSET -0.750000 0.000000 0.000000
									CHANNELS 3 Zrotation Yrotation Xrotation
									End Site
									{
										OFFSET 0.000000 0.000000 0.000000
									}
								}
							}
						}
					}
				}
			}
		}
	}
}
MOTION
Frames: 4
Frame Time: 0.016667
-0.581430 16.812210 -3.122870 -0.486581 -26.311345 -0.539903 -14.651557 13.590632 2.951529 9.469970 -0.695712 -5.431148 -7.995232 5.859996 7.775801 -1.328706 5.273277 3.030429 -0.467440 -0.551430 -0.874690 18.586041 -11.414907 2.342427 -15.598424 -1.360088 -20.259971 -0.179766 -3.696803 11.384024 0.643135 -3.332381 3.534275 0.373580 1.302090 -0.440810 -4.620914 -1.632883 -6.993245 14.218449 -7.346197 14.315421 -11.772323 -6.087037 -3.923480 -4.018887 -8.014480 -4.763650 -15.981829 7.685476 23.548929 2.971650 -1.933970 0.574350 12.509608 9.110524 1.801034 13.374227 -15.953225 8.231430 110.593583 -43.474778 -49.249105 -4.922575 2.101950 0.090190 0.760880 -1.139990 0.083130 -5.414680 -8.280098 -6.567241 -24.335396 -6.753372 -2.511830 -128.230937 4.671632 -5.869569 2.296142 -2.008164 -1.137260 1.086570 0.923160 -0.187020 
-0.640430 16.790370 -3.106330 0.054448 -27.021854 -0.614834 -14.683709 13.693707 2.931639 8.959223 -0.551760 -5.237049 -7.439590 5.855543 8.186380 -1.316312 5.274754 3.046807 -0.550380 -0.635920 -0.934190 18.550866 -11.354831 2.355232 -15.662307 -1.362747 -19.134636 -0.150023 -3.613858 10.300694 0.670103 -3.353815 3.556424 0.330340 1.345910 -0.456750 -4.512252 -1.906230 -6.980494 13.363487 -6.928331 13.759435 -11.343934 -5.727355 -3.888961 -3.937737 -8.230664 -5.291797 -16.544042 7.780955 23.490151 2.816260 -1.871440 1.942780 12.470993 8.318472 2.437062 11.649499 -15.942419 7.837295 106.650900 -42.585427 -45.434979 -4.937337 2.094246 0.071740 0.789090 -1.173780 0.064600 -5.414592 -7.223455 -6.277075 -25.043215 -7.446105 -2.731297 -126.126623 3.319081 -3.022062 2.309959 -1.963408 -1.165570 1.100540 0.966240 -0.178940 
-0.688770 16.776400 -3.092880 0.432466 -27.445476 -0.714180 -14.709301 13.831390 2.912321 8.523441 -0.494076 -5.304340 -6.770519 5.867439 9.030666 -1.317763 5.289688 3.052573 -0.632280 -0.738880 -0.982500 18.511041 -11.300798 2.382697 -15.669526 -1.328225 -18.058956 -0.129160 -3.564013 9.361868 0.693800 -3.393377 3.571096 0.274100 1.384880 -0.449670 -4.385738 -2.222634 -6.991535 12.677547 -6.569820 13.727407 -10.920187 -5.430910 -4.478370 -3.751083 -8.281273 -5.825352 -16.926528 7.774630 23.626214 2.070760 -1.526810 3.694100 12.425590 7.830921 2.937421 10.027790 -17.195998 7.297310 102.019106 -40.505278 -40.288697 -4.976688 2.128026 0.061860 0.828110 -1.207470 0.042770 -5.547462 -6.735947 -6.025581 -24.876221 -8.208851 -2.849081 -124.166243 2.198621 -0.749594 2.323552 -1.952474 -1.189800 1.090120 1.012790 -0.183900 
-0.722330 16.769400 -3.080380 0.386989 -27.616172 -0.964695 -14.742713 13.999475 2.929447 8.598954 -0.466376 -5.206504 -6.454203 5.948655 9.700598 -1.267425 5.318527 3.036166 -0.673640 -0.796990 -0.998380 18.456623 -11.225326 2.395667 -15.558295 -1.356483 -16.795809 0.112907 -3.590177 8.741853 0.683458 -3.412225 3.580407 0.217060 1.366600 -0.441950 -4.208566 -2.651203 -7.046758 12.180178 -6.479338 14.437897 -9.913482 -5.230107 -5.150603 -3.446988 -8.568307 -6.644642 -17.933241 7.558632 24.068039 1.748250 -1.613730 4.742760 12.512098 7.126858 3.716195 8.067012 -17.423841 6.807371 99.735602 -37.735264 -36.616252 -4.968826 2.178462 0.071050 0.814370 -1.195160 0.027540 -5.930880 -5.754562 -5.568467 -25.132580 -9.568183 -3.033726 -121.266433 0.632737 2.015105 2.366954 -1.931159 -1.174870 1.056270 1.023680 -0.183030 
